<svg width="192" height="50" viewBox="0 0 192 50" fill="none" xmlns="http://www.w3.org/2000/svg">
<g clip-path="url(#clip0_331_69)">
<path d="M98.7641 17.5653C98.1824 16.9023 97.4466 16.374 96.5563 15.9779C95.6663 15.5844 94.6191 15.3863 93.4202 15.3863C91.1821 15.3863 89.286 16.0604 87.7319 17.4113C86.1774 18.7594 85.3174 20.4928 85.1521 22.6085H100.442C100.442 21.6538 100.307 20.7404 100.037 19.871C99.7672 18.9988 99.3427 18.2312 98.7641 17.5653Z" fill="white"/>
<path d="M31.3135 27.0605C29.988 27.165 28.7644 27.3934 27.6481 27.7456C26.5291 28.0978 25.5976 28.5956 24.8508 29.2395C24.1039 29.8834 23.7318 30.7636 23.7318 31.8864C23.7318 32.5906 23.8861 33.1822 24.1976 33.6581C24.509 34.137 24.9114 34.522 25.4102 34.8136C25.9063 35.1025 26.4658 35.3117 27.0886 35.4356C27.7088 35.5592 28.3316 35.6197 28.9516 35.6197C31.5202 35.6197 33.466 34.9347 34.7944 33.5645C36.1199 32.1972 36.7813 30.3289 36.7813 27.9628V26.9037H35.1058C33.9041 26.9037 32.6391 26.9559 31.3135 27.0605Z" fill="white"/>
<path d="M173.859 31.9483C173.01 33.8992 171.858 35.5692 170.411 36.9614C168.958 38.3505 167.239 39.4403 165.252 40.2272C163.262 41.0167 161.148 41.4103 158.913 41.4103C156.675 41.4103 154.561 41.0167 152.571 40.2272C150.584 39.4403 148.864 38.3505 147.415 36.9614C145.965 35.5692 144.813 33.8992 143.964 31.9483C143.115 29.9978 142.691 27.8378 142.691 25.4745C142.691 23.1056 143.115 20.9596 143.964 19.0281C144.813 17.0995 145.965 15.4487 147.415 14.0785C148.864 12.7084 150.584 11.6519 152.571 10.9035C154.561 10.1579 156.675 9.78371 158.913 9.78371C161.148 9.78371 163.262 10.1579 165.252 10.9035C167.239 11.6519 168.958 12.7084 170.411 14.0785C171.858 15.4487 173.01 17.0995 173.859 19.0281C174.707 20.9596 175.132 23.1056 175.132 25.4745C175.132 27.8378 174.707 29.9978 173.859 31.9483ZM107.9 26.9657C107.9 27.2986 107.877 27.6317 107.836 27.9644H85.1516C85.2371 29.043 85.5155 30.028 85.9921 30.9222C86.4691 31.8136 87.1002 32.5811 87.8883 33.2222C88.6738 33.8689 89.5641 34.375 90.5588 34.7492C91.5538 35.1233 92.5899 35.3105 93.6677 35.3105C95.5335 35.3105 97.1071 34.9694 98.3913 34.2842C99.6758 33.5992 100.731 32.6528 101.561 31.4503L106.532 35.4342C103.589 39.4183 99.323 41.4103 93.731 41.4103C91.4077 41.4103 89.2746 41.0469 87.3288 40.3205C85.3805 39.5942 83.6938 38.568 82.2633 37.2392C80.833 35.913 79.7141 34.2842 78.9066 32.3528C78.0991 30.4214 77.6938 28.2342 77.6938 25.7826C77.6938 23.378 78.0991 21.1879 78.9066 19.2152C79.7141 17.2453 80.8246 15.5615 82.233 14.172C83.6385 12.7826 85.3088 11.7041 87.2352 10.9365C89.1616 10.1689 91.2424 9.78371 93.4802 9.78371C95.5527 9.78371 97.468 10.1249 99.2291 10.8099C100.99 11.495 102.512 12.513 103.796 13.8612C105.08 15.2093 106.086 16.8931 106.811 18.9043C107.536 20.9183 107.9 23.2734 107.9 25.9725V26.9657ZM58.8983 21.0834C59.9949 21.5621 61.6019 22.0491 63.7127 22.5471C64.8319 22.7947 65.9616 23.1276 67.1027 23.5431C68.241 23.9585 69.2771 24.5088 70.2088 25.1938C71.1402 25.8762 71.8955 26.7263 72.4769 27.7444C73.0555 28.7622 73.3477 29.9978 73.3477 31.4503C73.3477 33.2744 73.006 34.8208 72.3224 36.0892C71.6391 37.3547 70.7269 38.3808 69.5858 39.1705C68.4477 39.9575 67.1219 40.5297 65.6088 40.8819C64.096 41.2342 62.5333 41.4103 60.9183 41.4103C58.5977 41.4103 56.3405 40.9864 54.1441 40.1336C51.9474 39.2861 50.1258 38.07 48.6763 36.4908L53.5846 31.885C54.4113 32.9664 55.4891 33.8578 56.8146 34.5622C58.143 35.2692 59.6119 35.6214 61.2269 35.6214C61.7671 35.6214 62.3155 35.558 62.8749 35.4342C63.4344 35.3105 63.9527 35.115 64.4294 34.8428C64.9035 34.573 65.2894 34.21 65.5785 33.7533C65.868 33.2964 66.0141 32.738 66.0141 32.0722C66.0141 30.8286 65.4435 29.9372 64.3055 29.395C63.1644 28.8558 61.4558 28.3167 59.1766 27.7747C58.0574 27.527 56.9716 27.2051 55.9133 26.8116C54.858 26.4182 53.9152 25.8982 53.0885 25.2544C52.2591 24.6106 51.5946 23.8127 51.0988 22.858C50.5999 21.9033 50.3519 20.7202 50.3519 19.3088C50.3519 17.6497 50.6935 16.2163 51.3771 15.014C52.0605 13.8089 52.9619 12.8239 54.0808 12.0563C55.1996 11.2887 56.4646 10.7164 57.873 10.345C59.2813 9.96805 60.7308 9.78371 62.2246 9.78371C64.3771 9.78371 66.4799 10.1579 68.5302 10.9035C70.5808 11.6519 72.2069 12.7937 73.4083 14.3289L68.5605 18.6265C67.8991 17.7515 66.9869 16.9949 65.8266 16.3511C64.6663 15.71 63.4041 15.3854 62.0371 15.3854C60.8355 15.3854 59.736 15.6358 58.7438 16.1337C57.7488 16.6317 57.2499 17.4626 57.2499 18.6265C57.2499 19.7875 57.8013 20.6074 58.8983 21.0834ZM43.8669 40.538H36.9083V36.7411H36.7208C35.9738 38.07 34.7721 39.1594 33.1158 40.0097C31.4569 40.86 29.5744 41.2864 27.4606 41.2864C26.259 41.2864 25.005 41.1322 23.7014 40.8186C22.3951 40.5078 21.1935 39.9905 20.0966 39.2614C18.997 38.5378 18.0848 37.583 17.3627 36.4C16.6351 35.2142 16.2741 33.7533 16.2741 32.0089C16.2741 29.7667 16.9052 27.9836 18.1702 26.6548C19.4324 25.3287 21.0585 24.3107 23.0483 23.6036C25.0381 22.8992 27.2429 22.4343 29.6655 22.2032C32.0908 21.9775 34.4635 21.862 36.7813 21.862V21.1137C36.7813 19.2482 36.1088 17.8671 34.7641 16.9729C33.4163 16.0815 31.8096 15.6358 29.9466 15.6358C28.3702 15.6358 26.8598 15.9687 25.4102 16.6317C23.9578 17.2948 22.7589 18.1065 21.8053 19.0612L17.9525 14.516C19.6502 12.9395 21.6069 11.7537 23.8255 10.9668C26.0413 10.1771 28.2902 9.78371 30.5666 9.78371C33.218 9.78371 35.406 10.1579 37.123 10.9035C38.8427 11.6519 40.2016 12.6258 41.1938 13.8309C42.1885 15.0332 42.883 16.3841 43.2771 17.8781C43.6685 19.372 43.8669 20.8633 43.8669 22.36V40.538ZM185.844 0H121.04V23.2322H121.227L132.538 10.6531H142.11L129.181 24.1649L142.914 40.538H133.034L121.227 25.2241H121.04V40.538H113.582V0H5.56156C2.48865 0 0 2.4872 0 5.55216V44.1311C0 47.1961 2.48865 49.6833 5.56156 49.6833H185.844C188.917 49.6833 191.409 47.1961 191.409 44.1311V5.55216C191.409 2.4872 188.917 0 185.844 0Z" fill="white"/>
<path d="M165.437 18.9353C164.731 18.0246 163.841 17.2845 162.764 16.726C161.686 16.1647 160.404 15.8841 158.91 15.8841C157.42 15.8841 156.135 16.1647 155.058 16.726C153.98 17.2845 153.09 18.0246 152.387 18.9353C151.682 19.8487 151.152 20.8777 150.802 22.0168C150.45 23.1586 150.273 24.3114 150.273 25.4724C150.273 26.6335 150.45 27.7972 150.802 28.9583C151.152 30.1222 151.682 31.1595 152.387 32.0728C153.09 32.9864 153.98 33.732 155.058 34.3125C156.135 34.8958 157.42 35.1847 158.91 35.1847C160.404 35.1847 161.686 34.8958 162.764 34.3125C163.841 33.732 164.731 32.9864 165.437 32.0728C166.139 31.1595 166.669 30.1222 167.021 28.9583C167.374 27.7972 167.55 26.6335 167.55 25.4724C167.55 24.3114 167.374 23.1586 167.021 22.0168C166.669 20.8777 166.139 19.8487 165.437 18.9353Z" fill="white"/>
</g>
<defs>
<clipPath id="clip0_331_69">
<rect width="192" height="50" fill="white"/>
</clipPath>
</defs>
</svg>
